<svg id="Capa_1" enable-background="new 0 0 512 512" height="512" viewBox="0 0 512 512" width="512" xmlns="http://www.w3.org/2000/svg"><g><g><path d="m351.247 205.069c0 25.571-20.522 46.301-45.836 46.301l-50.352-.583-48.441.583c-25.315 0-45.836-20.73-45.836-46.301v-108.872c0-53.128 42.637-96.197 95.232-96.197 52.595 0 95.232 43.069 95.232 96.197v108.872z" fill="#6e4848"/><g><path d="m256.28 0c-4.438 0-8.803.316-13.079.912 46.259 6.456 81.889 46.652 81.889 95.285v108.871c0 23.947-17.949 43.647-40.962 46.052l21.411.248c25.244 0 45.709-20.73 45.709-46.301v-108.87c-.001-53.128-42.52-96.197-94.968-96.197z" fill="#633c3e"/></g><path d="m108.989 369.068c-7.842.001-14.205-6.348-14.219-14.191l-.025-13.719c0-23.354 13.998-44.433 35.524-53.493l125.745-54.671 126.744 54.324c20.991 9.301 34.525 30.103 34.525 53.062l.025 14.393c.014 7.86-6.354 14.24-14.214 14.241z" fill="#b2e59f"/><path d="m261.4 328.4 71.526-62.436v-.005l-76.911-32.965-75.266 32.724v.002l71.745 62.678c2.55 2.228 6.355 2.229 8.906.002z" fill="#95d5a4"/><path d="m300.505 252.374-44.505 38.849-44.476-38.849v-42.024h88.981z" fill="#f7d4ad"/><g fill="#ecbd83"><path d="m340.553 154.583h-13.856v-42.531h13.856c5.906 0 10.693 4.788 10.693 10.693v21.144c.001 5.907-4.787 10.694-10.693 10.694z"/><path d="m171.476 154.583h13.856v-42.531h-13.856c-5.906 0-10.693 4.788-10.693 10.693v21.144c-.001 5.907 4.787 10.694 10.693 10.694z"/><path d="m211.524 226.482c12.148 9.85 27.62 15.761 44.48 15.761 16.869 0 32.35-5.919 44.5-15.783v-16.11h-88.981v16.132z"/></g><path d="m326.681 112.053v44.437c0 38.852-30.913 71.232-69.762 71.723-39.465.499-71.6-31.34-71.6-70.68v-45.48c2.492-.404 9.541-1.884 15.435-8.002 1.943-2.017 3.348-4.109 4.367-6.022l6.077-25.085c2.378-9.815 13.419-14.702 22.283-9.864z" fill="#f7d4ad"/><path d="m215.911 53.489c11.705 36.066 45.587 62.145 85.555 62.145 8.754 0 17.218-1.252 25.215-3.581l-4.258-16.43z" fill="#6e4848"/></g><path d="m258.495 389.476 18.008 36.488c.395.8 1.158 1.354 2.041 1.483l40.267 5.851c2.223.323 3.111 3.055 1.502 4.623l-29.138 28.402c-.639.623-.93 1.52-.779 2.399l6.878 40.104c.38 2.214-1.944 3.902-3.932 2.857l-36.016-18.935c-.79-.415-1.733-.415-2.522 0l-36.016 18.935c-1.988 1.045-4.312-.643-3.932-2.857l6.878-40.104c.151-.879-.141-1.776-.779-2.399l-29.138-28.402c-1.609-1.568-.721-4.3 1.502-4.623l40.267-5.851c.883-.128 1.646-.683 2.041-1.483l18.008-36.488c.994-2.014 3.866-2.014 4.86 0z" fill="#fee07d"/><g><path d="m320.313 437.92c1.608-1.568.721-4.3-1.502-4.623l-40.267-5.851c-.883-.128-1.646-.683-2.041-1.483l-18.008-36.488c-.994-2.014-3.866-2.014-4.86 0l-8.407 17.035 9.601 19.453c.395.8 1.158 1.354 2.041 1.483 18.694 2.716 26.159 25.69 12.631 38.876-.639.623-.93 1.52-.779 2.399l5.659 32.992 18.963 9.969c1.988 1.045 4.312-.643 3.932-2.857l-6.878-40.105c-.151-.879.141-1.776.779-2.398z" fill="#ffc269"/></g><path d="m85.169 389.476 18.008 36.488c.395.8 1.158 1.354 2.041 1.483l40.267 5.851c2.223.323 3.111 3.055 1.502 4.623l-29.138 28.402c-.639.623-.93 1.52-.779 2.399l6.878 40.104c.38 2.214-1.944 3.902-3.932 2.857l-36.016-18.935c-.79-.415-1.733-.415-2.522 0l-36.016 18.935c-1.988 1.045-4.312-.643-3.932-2.857l6.878-40.104c.151-.879-.141-1.776-.779-2.399l-29.138-28.403c-1.609-1.568-.721-4.3 1.502-4.623l40.267-5.851c.883-.128 1.646-.683 2.041-1.483l18.008-36.488c.994-2.013 3.866-2.013 4.86.001z" fill="#fee07d"/><g><path d="m146.987 437.92c1.608-1.568.721-4.3-1.502-4.623l-40.267-5.851c-.883-.128-1.646-.683-2.041-1.483l-18.008-36.488c-.994-2.014-3.866-2.014-4.861 0l-5.54 11.225 12.468 25.263c.395.8 1.158 1.354 2.041 1.483 18.694 2.716 26.159 25.69 12.632 38.876-.639.623-.93 1.52-.779 2.399l6.227 36.306 12.659 6.655c1.988 1.045 4.312-.643 3.932-2.857l-6.878-40.104c-.151-.879.141-1.776.779-2.399z" fill="#ffc269"/></g><path d="m431.691 389.476 18.008 36.488c.395.8 1.158 1.354 2.041 1.483l40.267 5.851c2.223.323 3.111 3.055 1.502 4.623l-29.138 28.402c-.639.623-.93 1.52-.779 2.399l6.878 40.104c.38 2.214-1.944 3.902-3.932 2.857l-36.016-18.935c-.79-.415-1.733-.415-2.522 0l-36.016 18.935c-1.988 1.045-4.312-.643-3.932-2.857l6.878-40.104c.151-.879-.141-1.776-.779-2.399l-29.138-28.402c-1.609-1.568-.721-4.3 1.502-4.623l40.267-5.851c.883-.128 1.646-.683 2.041-1.483l18.008-36.488c.994-2.014 3.866-2.014 4.86 0z" fill="#fee07d"/><g><path d="m493.509 437.92c1.609-1.568.721-4.3-1.502-4.623l-40.267-5.851c-.883-.128-1.646-.683-2.041-1.483l-18.008-36.488c-.994-2.014-3.866-2.014-4.86 0l-7.768 15.74 10.24 20.748c.395.8 1.158 1.354 2.041 1.483 18.694 2.716 26.159 25.69 12.631 38.876-.639.623-.93 1.52-.779 2.399l5.785 33.731 17.558 9.231c1.988 1.045 4.312-.643 3.932-2.857l-6.878-40.104c-.151-.879.141-1.776.78-2.399z" fill="#ffc269"/></g></g></svg>