<svg id="Capa_1" enable-background="new 0 0 512 512" height="512" viewBox="0 0 512 512" width="512" xmlns="http://www.w3.org/2000/svg"><g><g><path d="m332.02 70.818v35.247h-152.04v-41.772c0-20.263 16.436-36.7 36.7-36.7h22.923c12.35 0 24.129-5.228 32.406-14.4l11.701-13.193c28.28 11.079 48.31 38.62 48.31 70.818z" fill="#6e4848"/><path d="m283.71 0-7.181 8.097c19.961 13.705 33.058 36.688 33.058 62.721v35.247h22.433v-35.247c0-32.198-20.03-59.739-48.31-70.818z" fill="#633c3e"/><path d="m100.344 368.921c-9.804 0-17.751-7.948-17.751-17.751v-18.359c0-25.112 15.052-47.778 38.197-57.519l135.21-58.787 136.284 58.413c22.57 10.002 37.124 32.368 37.124 57.055v19.196c0 9.804-7.948 17.751-17.751 17.751h-311.313z" fill="#c2ddff"/><path d="m255.987 317.627c40.799 0 75.319-26.905 86.774-63.929v-.005l-86.761-37.188-86.632 37.666v.007c11.611 36.777 46.014 63.449 86.619 63.449z" fill="#a4ccff"/><path d="m256 279.117c-26.421 0-47.839-21.418-47.839-47.839v-39.121h95.678v39.121c0 26.42-21.418 47.839-47.839 47.839z" fill="#f7d4ad"/><path d="m208.161 208.866c13.062 10.59 29.698 16.945 47.826 16.945 18.139 0 34.786-6.363 47.852-16.965v-22.896h-95.678z" fill="#ecbd83"/><path d="m227.655 73.001c17.176 16.566 40.527 26.75 66.264 26.75 12.778 0 24.959-2.504 36.103-7.07 1.972 5.63 2.075 10.625 1.972 13.388v29.302c0 41.98-34.028 76.007-76.007 76.007s-76.007-34.028-76.007-76.008v-29.302c2.748.039 8.263-.255 14.219-3.354 4.938-2.568 33.456-29.713 33.456-29.713z" fill="#f7d4ad"/></g><path d="m258.497 389.372 18.023 36.519c.395.801 1.159 1.355 2.042 1.484l40.301 5.856c2.225.323 3.113 3.057 1.503 4.627l-29.162 28.426c-.639.623-.931 1.521-.78 2.401l6.884 40.138c.38 2.216-1.946 3.906-3.936 2.859l-36.046-18.951c-.79-.415-1.734-.415-2.524 0l-36.046 18.951c-1.99 1.046-4.316-.644-3.936-2.859l6.884-40.138c.151-.88-.141-1.778-.78-2.401l-29.162-28.426c-1.61-1.569-.722-4.303 1.503-4.627l40.301-5.856c.883-.128 1.647-.683 2.042-1.484l18.023-36.519c.996-2.016 3.871-2.016 4.866 0z" fill="#fee07d"/><g><path d="m320.367 437.858c1.61-1.569.722-4.303-1.503-4.627l-40.301-5.856c-.884-.128-1.647-.683-2.042-1.484l-18.023-36.519c-.995-2.016-3.87-2.016-4.865 0l-6.654 13.482 11.369 23.037c.395.801 1.159 1.355 2.042 1.484 18.71 2.719 26.181 25.712 12.642 38.909-.639.623-.931 1.521-.78 2.401l6.012 35.055 15.108 7.943c1.99 1.046 4.316-.644 3.936-2.859l-6.884-40.138c-.151-.88.141-1.778.78-2.401z" fill="#ffc269"/></g><path d="m85.025 389.372 18.023 36.519c.395.801 1.159 1.355 2.042 1.484l40.301 5.856c2.225.323 3.113 3.057 1.503 4.627l-29.162 28.426c-.639.623-.931 1.521-.78 2.401l6.884 40.138c.38 2.216-1.946 3.906-3.936 2.859l-36.046-18.951c-.79-.415-1.734-.415-2.524 0l-36.046 18.951c-1.99 1.046-4.316-.644-3.936-2.859l6.884-40.138c.151-.88-.141-1.778-.78-2.401l-29.162-28.426c-1.61-1.569-.722-4.303 1.503-4.627l40.301-5.856c.883-.128 1.647-.683 2.042-1.484l18.023-36.519c.997-2.016 3.871-2.016 4.866 0z" fill="#fee07d"/><g><path d="m146.895 437.858c1.61-1.569.722-4.303-1.503-4.627l-40.301-5.856c-.883-.128-1.647-.683-2.042-1.484l-18.023-36.519c-.995-2.016-3.87-2.016-4.865 0l-8.47 17.162 9.553 19.357c.395.801 1.159 1.355 2.042 1.484 18.71 2.719 26.181 25.712 12.642 38.909-.639.623-.931 1.521-.78 2.401l5.652 32.956 19.101 10.042c1.99 1.046 4.316-.644 3.936-2.859l-6.884-40.138c-.151-.88.141-1.778.78-2.401z" fill="#ffc269"/></g><path d="m431.839 389.372 18.023 36.519c.395.801 1.159 1.355 2.042 1.484l40.301 5.856c2.225.323 3.113 3.057 1.503 4.627l-29.162 28.426c-.639.623-.931 1.521-.78 2.401l6.884 40.138c.38 2.216-1.946 3.906-3.936 2.859l-36.046-18.951c-.79-.415-1.734-.415-2.524 0l-36.046 18.951c-1.99 1.046-4.316-.644-3.936-2.859l6.884-40.138c.151-.88-.141-1.778-.78-2.401l-29.162-28.426c-1.61-1.569-.722-4.303 1.503-4.627l40.301-5.856c.883-.128 1.647-.683 2.042-1.484l18.023-36.519c.997-2.016 3.871-2.016 4.866 0z" fill="#fee07d"/><g><path d="m493.709 437.858c1.61-1.569.722-4.303-1.503-4.627l-40.301-5.856c-.883-.128-1.647-.683-2.042-1.484l-18.023-36.519c-.995-2.016-3.87-2.016-4.865 0l-8.328 16.875 9.695 19.644c.395.801 1.159 1.355 2.042 1.484 18.71 2.719 26.181 25.712 12.642 38.909-.639.623-.931 1.521-.78 2.401l5.681 33.119 18.79 9.878c1.99 1.046 4.316-.644 3.936-2.859l-6.884-40.138c-.151-.88.141-1.778.78-2.401z" fill="#ffc269"/></g></g></svg>